<?xml version="1.0" standalone="no"?>
<!DOCTYPE svg PUBLIC "-//W3C//DTD SVG 20010904//EN"
 "http://www.w3.org/TR/2001/REC-SVG-20010904/DTD/svg10.dtd">
<svg version="1.0" xmlns="http://www.w3.org/2000/svg"
 width="260.000000pt" height="260.000000pt" viewBox="0 0 260.000000 260.000000"
 preserveAspectRatio="xMidYMid meet">
<metadata>
Created by potrace 1.11, written by Peter Selinger 2001-2013
</metadata>
<g transform="translate(0.000000,260.000000) scale(0.100000,-0.100000)"
fill="#000000" stroke="none">
<path d="M1745 2220 c-93 -17 -230 -61 -314 -101 -169 -80 -291 -191 -358
-326 -36 -74 -38 -81 -37 -172 0 -53 3 -104 5 -114 3 -14 -11 -24 -69 -47
-186 -73 -348 -211 -418 -355 -34 -71 -39 -90 -42 -171 -4 -83 -2 -97 23 -153
121 -269 542 -268 960 3 149 97 425 350 425 390 0 37 -31 27 -90 -27 -150
-139 -333 -263 -484 -329 -146 -63 -262 -90 -401 -92 -113 -1 -123 1 -178 27
-77 38 -108 85 -108 159 0 154 142 328 356 435 93 47 96 47 160 9 94 -57 189
-60 245 -8 42 39 47 72 16 109 -36 43 -92 57 -220 55 l-109 -1 6 55 c23 223
285 445 622 524 94 23 212 28 244 10 55 -29 44 -88 -29 -154 -96 -86 -287
-136 -413 -107 -35 8 -39 7 -48 -16 -15 -39 -13 -41 60 -57 219 -50 451 30
535 184 24 44 28 61 24 109 -8 113 -75 163 -223 167 -49 2 -112 -1 -140 -6z
m-354 -806 c11 -14 10 -18 -6 -31 -28 -21 -168 -14 -191 9 -15 15 -14 17 27
26 73 16 155 14 170 -4z"/>
</g>
</svg>
